<svg xmlns="http://www.w3.org/2000/svg" width="30" height="30" fill="none"><g clip-path="url(#a)"><path fill="#001E36" d="M5.313.375h19.374A5.31 5.31 0 0 1 30 5.688v18.624a5.31 5.31 0 0 1-5.313 5.313H5.313A5.31 5.31 0 0 1 0 24.312V5.688A5.31 5.31 0 0 1 5.313.375"/><path fill="#31A8FF" d="M10.75 7.812c-.375 0-.75 0-1.137.013-.388.012-.75.012-1.088.025s-.65.013-.95.025c-.288.012-.487.012-.7.012-.088 0-.125.05-.125.138v12.862c0 .113.05.163.15.163h2.425c.088-.012.15-.088.137-.175v-4.012c.238 0 .413 0 .538.012s.325.012.625.012c1.025 0 1.963-.112 2.812-.425a4.3 4.3 0 0 0 2.013-1.525q.75-1.05.75-2.662c0-.563-.1-1.1-.287-1.625A4 4 0 0 0 15 9.225 4.5 4.5 0 0 0 13.325 8.2c-.7-.263-1.55-.388-2.575-.388m.279 2.462c.445.009.879.087 1.283.25.363.138.663.389.876.713.199.336.299.722.287 1.113 0 .55-.125.975-.387 1.287-.276.313-.626.55-1.025.663-.463.15-.95.225-1.438.225h-.663c-.15 0-.312-.013-.487-.025v-4.2c.088-.013.263-.025.513-.012.237-.013.524-.013.85-.013q.096-.003.191 0m10.484.639c-.888 0-1.626.137-2.213.437-.537.25-1 .65-1.312 1.15a2.94 2.94 0 0 0-.426 1.512c-.01.443.088.88.288 1.275.234.42.558.784.95 1.063a7.6 7.6 0 0 0 1.775.9c.613.237 1.025.425 1.225.587.2.163.3.325.3.5a.58.58 0 0 1-.337.526c-.225.112-.563.175-1.038.175-.5 0-1-.063-1.475-.188a5.3 5.3 0 0 1-1.55-.612c-.037-.026-.075-.038-.113-.013-.037.025-.05.075-.05.112v2.175c-.012.1.05.188.138.238.406.19.834.324 1.275.4a8.6 8.6 0 0 0 1.7.162c.9 0 1.65-.137 2.263-.4a3.13 3.13 0 0 0 1.4-1.112 2.9 2.9 0 0 0 .487-1.663 2.7 2.7 0 0 0-.287-1.287 2.9 2.9 0 0 0-.988-1.038A9 9 0 0 0 21.6 14.9a12 12 0 0 1-.888-.413 1.4 1.4 0 0 1-.424-.337.56.56 0 0 1-.125-.325c0-.112.037-.237.1-.337a.64.64 0 0 1 .387-.25c.238-.063.5-.1.75-.088.475 0 .937.062 1.4.162.425.088.825.226 1.2.426.05.024.113.024.225 0a.16.16 0 0 0 .063-.125v-2.038c0-.05-.013-.1-.026-.15-.025-.05-.075-.1-.124-.113a4.4 4.4 0 0 0-1.076-.287 11 11 0 0 0-1.55-.112"/></g><defs><clipPath id="a"><path fill="#fff" d="M0 0h30v30H0z"/></clipPath></defs></svg>