<svg xmlns="http://www.w3.org/2000/svg" width="30" height="30" fill="none"><g fill="#00C4CC" clip-path="url(#a)"><path d="M13.92.036c-.114.012-.468.054-.78.09-1.26.144-2.688.522-3.942 1.05C4.662 3.072 1.248 7.23.306 12 .084 13.134.03 13.692.03 15c0 1.686.168 2.85.612 4.32a15.05 15.05 0 0 0 10.056 10.044c1.452.438 2.622.606 4.302.606 1.686 0 2.85-.168 4.32-.612a15.05 15.05 0 0 0 10.044-10.056c.438-1.452.606-2.622.606-4.302 0-.714-.036-1.53-.078-1.83-.486-3.468-1.914-6.384-4.296-8.766C23.22 2.04 20.316.606 16.92.12c-.468-.066-2.634-.127-3-.084m-4.89 9.45c.319.096.468.186.684.402.42.426.516.66.516 1.302 0 .48-.018.57-.162.822-.276.467-.918.9-1.362.911-.313.007-.3-.131.042-.491.456-.474.522-.654.522-1.363-.006-.683-.09-.917-.408-1.109-.264-.162-.552-.15-.972.048-1.092.522-2.274 2.262-2.736 4.044-.612 2.376.474 4.278 2.262 3.954.522-.096 1.506-.6 1.933-.997.353-.323.353-.329.389-.73.078-.841.672-1.681 1.465-2.071.365-.18.455-.198.947-.198.468 0 .576.024.804.15.726.414.576 1.38-.21 1.38-.456 0-.69-.234-.36-.36.325-.12.204-.57-.174-.672-.444-.114-.948.186-1.266.762-.384.696-.402 1.524-.036 1.902.354.378.798.078 1.14-.78.18-.438.438-.672.738-.672.264 0 .313.162.198.654-.168.762-.054.96.42.726.156-.072.414-.24.57-.36l.294-.234.198-1.038c.216-1.164.3-1.32.744-1.404.426-.078.522.132.366.798l-.085.372.313-.318c.738-.757 1.644-1.128 1.956-.816.168.168.15.378-.09 1.122-.114.354-.27.912-.342 1.23-.108.48-.114.594-.054.672.193.228.78-.006 1.302-.516l.306-.3.037-.666c.035-.768.107-1.044.31-1.29.193-.228.541-.396.727-.348s.186.228.018.756c-.234.726-.21 2.4.03 2.4.096 0 .588-.516.9-.948l.234-.319-.186-.19c-.324-.343-.402-.565-.402-1.123 0-.408.03-.558.132-.757.168-.31.432-.539.744-.63a.815.815 0 0 1 .906.367c.168.306.126.99-.09 1.458l-.156.342h.21c.288 0 .402-.072.918-.558.27-.258.582-.48.816-.588.918-.432 1.999-.21 2.178.45.15.528-.18.9-.756.858-.414-.03-.492-.139-.252-.342.432-.36 0-.822-.618-.654-.336.09-.714.468-.912.906-.396.876-.186 1.908.384 1.908.228 0 .63-.45.786-.888.186-.504.576-.822.87-.708.162.06.174.222.072.732-.114.558-.132 1.08-.042 1.32.036.09.144.258.246.372.192.216.198.294.036.396-.078.054-.18.03-.432-.108-.348-.18-.648-.504-.756-.81l-.066-.18-.24.18a2 2 0 0 1-.48.24c-.498.132-1.11-.21-1.398-.786-.114-.222-.15-.876-.066-1.128.048-.138.048-.138-.144-.042a1.6 1.6 0 0 1-.486.132c-.276.03-.318.06-.594.408-.39.485-1.08 1.14-1.362 1.279-.6.299-.797.215-.954-.404l-.108-.413-.258.228c-.33.288-.99.636-1.368.72-.36.078-.744-.036-.9-.276-.233-.36-.156-1.122.216-2.148.275-.762.078-.774-.618-.048-.516.546-.738.936-.882 1.542-.15.63-.33.858-.737.954-.247.054-.361-.096-.313-.426l.036-.264-.228.156c-.324.222-.732.426-1.014.504s-.654-.006-.744-.162c-.162-.276-.162-.276-.413-.078-.547.444-1.327.318-1.723-.27l-.126-.186-.396.366c-1.14 1.044-2.568 1.512-3.624 1.188-1.344-.408-2.088-1.56-2.076-3.222.006-1.668.744-3.426 1.986-4.728.702-.732 1.362-1.164 2.035-1.326.485-.12.78-.114 1.24.03"/><path d="M21.192 13.752c-.132.132-.084.66.084.996.084.174.174.312.204.312.024 0 .078-.138.12-.306.15-.624-.12-1.29-.408-1.002"/></g><defs><clipPath id="a"><path fill="#fff" d="M0 0h30v30H0z"/></clipPath></defs></svg>