<svg xmlns="http://www.w3.org/2000/svg" width="30" height="30" fill="none"><g clip-path="url(#a)"><path fill="#2A0634" d="M0 0h30v30H0z"/><path fill="#E976B9" d="M0 0v30h30V0zm28.828 28.828H1.172V1.172h27.656z"/><path fill="#E976B9" d="M16.172 11.039a3.98 3.98 0 0 0-4.031-3.937H7.805v13.71h2.25V15.82H12c2.297-.023 4.172-1.922 4.172-4.242zm-2.25.703a2.14 2.14 0 0 1-2.133 2.133h-1.734V9.023h1.734a2.14 2.14 0 0 1 2.133 2.133zm4.148 9.07v-9.351s2.39-1.195 4.735-.89v1.945s-1.64 0-2.367.304v8.016H18.07z"/></g><defs><clipPath id="a"><rect width="30" height="30" fill="#fff" rx="8"/></clipPath></defs></svg>