<svg xmlns="http://www.w3.org/2000/svg" width="30" height="30" fill="none"><g clip-path="url(#a)"><path fill="#300" d="M5.32.375h19.383c2.93 0 5.32 2.367 5.32 5.32v18.633c0 2.93-2.367 5.32-5.32 5.32H5.32A5.336 5.336 0 0 1 0 24.305V5.695A5.3 5.3 0 0 1 5.32.375"/><path fill="#FF9A00" d="M14.508 17.883H9.844l-.938 2.93c-.023.117-.117.187-.234.164H6.328c-.14 0-.164-.07-.14-.235l4.03-11.578c.048-.117.071-.258.118-.422.047-.258.07-.539.07-.82-.023-.07.047-.117.094-.14h3.235c.093 0 .14.046.164.093l4.57 12.867c.047.14 0 .211-.117.211h-2.625c-.094.024-.164-.047-.211-.14zm-3.938-2.555h3.165a10 10 0 0 0-.282-.89 12 12 0 0 1-.328-1.079 70 70 0 0 0-.351-1.148c-.118-.399-.235-.75-.329-1.102q-.14-.527-.28-.984h-.024q-.176.81-.422 1.617c-.188.61-.375 1.219-.586 1.852a31 31 0 0 1-.563 1.734m10.688-5.32c-.422.023-.82-.14-1.102-.445a1.6 1.6 0 0 1-.421-1.149c-.024-.422.14-.82.445-1.101a1.65 1.65 0 0 1 1.101-.446c.492 0 .867.14 1.149.446.281.304.422.703.422 1.101.023.422-.141.844-.446 1.149a1.52 1.52 0 0 1-1.148.445m-1.406 10.851v-9.632c0-.118.046-.165.164-.165H22.5c.117 0 .164.07.164.165v9.632c0 .141-.047.211-.164.211h-2.46c-.118-.023-.188-.093-.188-.21"/></g><defs><clipPath id="a"><path fill="#fff" d="M0 0h30v30H0z"/></clipPath></defs></svg>