<svg xmlns="http://www.w3.org/2000/svg" width="261" height="140" fill="none"><path fill="#3F3F3F" d="M21.718 41V30.808h2.723q2.268 0 3.262.749.994.75.994 2.303 0 3.03-4.081 3.031h-1.694V41zm1.204-5.152h1.827q2.66 0 2.66-1.974 0-1.036-.637-1.533-.638-.497-2.163-.497h-1.687zm14.17 5.285q-.763.112-1.162-.084-.399-.195-.546-.7-.147-.51-.147-1.337v-1.946q0-1.275-.35-1.841-.35-.574-1.162-.574-.532 0-1.078.273-.54.273-.903.854-.364.574-.364 1.498V41h-1.148V30.458l1.148-.14v4.557q.357-.546 1.071-.875.72-.336 1.519-.336 1.218 0 1.82.805.602.798.602 2.576v1.715q0 .532.021.875t.189.483q.168.133.602.049zm4.989.021q-1.113 0-1.946-.462a3.34 3.34 0 0 1-1.302-1.309q-.462-.84-.462-1.96 0-1.127.462-1.974a3.3 3.3 0 0 1 1.295-1.316q.84-.47 1.946-.469 1.098 0 1.918.469.818.47 1.274 1.309.455.84.455 1.967 0 1.12-.455 1.967-.456.84-1.274 1.309-.819.47-1.911.469m0-.966q1.106 0 1.778-.756.672-.763.672-2.009 0-1.253-.68-2.009-.671-.763-1.777-.763-1.127 0-1.82.77-.693.763-.693 2.016 0 1.239.693 1.995.692.756 1.827.756m8.138.868q-1.218 0-1.771-.511-.553-.51-.553-1.645v-4.333h-1.421v-.749h1.456v-1.904l1.113-.329v2.233h2.359v.749h-2.36v4.347q0 .658.316.959.315.294.994.294.16 0 .413-.042a7 7 0 0 0 .518-.105q.259-.063.42-.126l.133.861q-.33.113-.826.21a4.5 4.5 0 0 1-.791.091m6.135.098q-1.112 0-1.946-.462a3.35 3.35 0 0 1-1.302-1.309q-.462-.84-.462-1.96 0-1.127.462-1.974a3.3 3.3 0 0 1 1.295-1.316q.84-.47 1.946-.469 1.1 0 1.918.469.818.47 1.274 1.309.455.84.455 1.967 0 1.12-.455 1.967-.455.84-1.274 1.309-.819.47-1.911.469m0-.966q1.106 0 1.778-.756.672-.763.672-2.009 0-1.253-.679-2.009-.672-.763-1.778-.763-1.127 0-1.82.77-.693.763-.693 2.016 0 1.239.693 1.995t1.827.756m7.507.966a4.6 4.6 0 0 1-1.456-.217 6.4 6.4 0 0 1-1.036-.434l.35-.987q.406.308.966.49.567.182 1.092.182.582 0 .987-.231.413-.238.413-.777a.8.8 0 0 0-.28-.623 2.7 2.7 0 0 0-.707-.462q-.434-.203-.924-.413a7.4 7.4 0 0 1-.917-.476 2.4 2.4 0 0 1-.7-.658q-.265-.386-.259-.945.015-.896.658-1.414.645-.525 1.722-.525a4.4 4.4 0 0 1 1.253.168q.574.168 1.015.399l-.308.945a4.5 4.5 0 0 0-.945-.378 3.3 3.3 0 0 0-.945-.147q-.609 0-.966.245a.77.77 0 0 0-.35.672q0 .33.273.567.28.238.714.441.435.196.917.406.49.21.917.49.435.273.7.658.267.386.252.945-.02.924-.679 1.505-.651.574-1.757.574m10.952-.021q-.763.112-1.162-.084-.399-.195-.546-.7-.147-.51-.147-1.337v-1.946q0-1.275-.35-1.841-.35-.574-1.162-.574-.532 0-1.078.273-.54.273-.903.854-.364.574-.364 1.498V41h-1.148V30.458l1.148-.14v4.557q.357-.546 1.07-.875.722-.336 1.52-.336 1.218 0 1.82.805.602.798.602 2.576v1.715q0 .532.02.875.022.343.19.483.167.133.602.049zm4.988.021q-1.113 0-1.946-.462a3.34 3.34 0 0 1-1.302-1.309q-.462-.84-.462-1.96 0-1.127.462-1.974a3.3 3.3 0 0 1 1.295-1.316q.84-.47 1.946-.469 1.1 0 1.918.469.819.47 1.274 1.309.456.84.455 1.967 0 1.12-.455 1.967-.455.84-1.274 1.309-.82.47-1.91.469m0-.966q1.106 0 1.778-.756.672-.763.672-2.009 0-1.253-.679-2.009-.671-.763-1.778-.763-1.127 0-1.82.77-.693.763-.693 2.016 0 1.239.693 1.995t1.827.756m5.47 4.011v-8.225q0-.505-.189-.91a2.5 2.5 0 0 0-.447-.7l.972-.546q.582.427.672 1.302.385-.685 1.12-1.071a3.4 3.4 0 0 1 1.59-.385q1.505 0 2.352.966.846.966.847 2.681 0 1.813-.862 2.828-.86 1.015-2.407 1.015-.743 0-1.421-.217-.679-.217-1.079-.602v3.738zm3.48-4.011q1.064 0 1.651-.749.596-.75.596-2.086 0-1.275-.547-1.988-.545-.714-1.525-.714-1.141 0-1.828.875-.686.874-.686 2.436v1.162q.365.504 1.001.784.637.28 1.338.28M21.802 14V3.808h1.204V14zm7.553-.245a4.3 4.3 0 0 1-1.4.357 2.8 2.8 0 0 1-1.246-.161 1.9 1.9 0 0 1-.89-.728q-.328-.51-.328-1.323V3.528l1.148-.21v8.638q0 .728.378 1.022.377.294.959.259a3.8 3.8 0 0 0 1.204-.301zm4.798 0a4.3 4.3 0 0 1-1.4.357 2.8 2.8 0 0 1-1.246-.161 1.9 1.9 0 0 1-.889-.728q-.33-.51-.329-1.323V3.528l1.148-.21v8.638q0 .728.378 1.022t.96.259a3.8 3.8 0 0 0 1.203-.301zm3.413.399q-.679 0-1.295-.259a2.2 2.2 0 0 1-.994-.861q-.378-.595-.35-1.589l.042-1.519q.035-1.12-.07-1.743-.098-.63-.217-.889A12 12 0 0 0 34.556 7l1.155-.182q.02.035.133.28.112.245.21.889.105.637.07 1.848l-.042 1.61q-.015.686.224 1.064.238.378.623.532.392.147.812.147.581 0 1.057-.259a1.96 1.96 0 0 0 .77-.742q.294-.49.294-1.176V6.818h1.148v5.068q0 .764.252 1.022.252.252.735.147l-.112.966q-.825.154-1.309-.189-.476-.343-.539-.98-.805 1.302-2.47 1.302m7.989 0a4.6 4.6 0 0 1-1.456-.217 6.4 6.4 0 0 1-1.036-.434l.35-.987q.405.308.966.49.567.182 1.092.182.58 0 .987-.231.413-.239.413-.777a.8.8 0 0 0-.28-.623 2.7 2.7 0 0 0-.707-.462q-.435-.203-.924-.413a7.4 7.4 0 0 1-.917-.476 2.4 2.4 0 0 1-.7-.658q-.267-.385-.26-.945.015-.896.659-1.414.643-.525 1.722-.525a4.4 4.4 0 0 1 1.253.168q.573.168 1.015.399l-.308.945a4.5 4.5 0 0 0-.945-.378 3.3 3.3 0 0 0-.945-.147q-.609 0-.966.245a.77.77 0 0 0-.35.672q0 .33.273.567.279.239.714.441.434.196.917.406.49.21.917.49.433.273.7.658t.252.945q-.02.924-.68 1.505-.65.574-1.756.574m6.906-.098q-1.218 0-1.771-.511-.553-.51-.553-1.645V7.567h-1.421v-.749h1.456V4.914l1.113-.329v2.233h2.359v.749h-2.359v4.347q0 .658.315.959.315.294.994.294.16 0 .413-.042.259-.042.518-.105.26-.063.42-.126l.133.861q-.33.112-.826.21-.49.09-.791.091M55.578 14V9.107q0-.609-.21-1.064a9 9 0 0 0-.455-.861l1.155-.364q.189.287.343.581.154.287.21.623a2.6 2.6 0 0 1 .82-.959 2 2 0 0 1 1.21-.399q.435 0 .658.042.231.042.42.098l-.098 1.015a4 4 0 0 0-.329-.098q-.237-.07-.686-.07-.763 0-1.33.574-.56.567-.56 1.799V14zm7.743.154q-.875 0-1.533-.399a2.77 2.77 0 0 1-1.015-1.127q-.363-.728-.364-1.694 0-1.28.504-2.24a3.7 3.7 0 0 1 1.407-1.491q.91-.54 2.121-.539.708 0 1.393.168.686.16 1.106.434v4.732q0 .462.238.749.246.28.637.28l-.238 1.001q-.609 0-1.057-.329a1.42 1.42 0 0 1-.567-.861q-.357.595-1.078.959-.72.357-1.554.357m.175-.966q.693 0 1.204-.308.519-.315.805-.847t.287-1.204V7.896a2 2 0 0 0-.595-.175 4.3 4.3 0 0 0-.777-.07q-.846 0-1.484.406-.63.4-.987 1.12-.35.72-.35 1.687 0 1.043.518 1.687.525.637 1.38.637m8.639.868q-1.219 0-1.771-.511-.553-.51-.553-1.645V7.567H68.39v-.749h1.456V4.914l1.113-.329v2.233h2.359v.749h-2.36v4.347q0 .658.316.959.315.294.994.294.16 0 .413-.042a7 7 0 0 0 .518-.105q.259-.063.42-.126l.133.861q-.33.112-.826.21a4.5 4.5 0 0 1-.791.091m6.135.098q-1.113 0-1.946-.462a3.35 3.35 0 0 1-1.302-1.309q-.462-.84-.462-1.96 0-1.127.462-1.974a3.3 3.3 0 0 1 1.295-1.316q.84-.47 1.946-.469 1.1 0 1.918.469.819.47 1.274 1.309.455.84.455 1.967 0 1.12-.455 1.967-.455.84-1.274 1.309-.819.47-1.911.469m0-.966q1.106 0 1.778-.756.672-.763.672-2.009 0-1.253-.679-2.009-.671-.763-1.778-.763-1.127 0-1.82.77-.693.763-.693 2.016 0 1.239.693 1.995t1.827.756m5.554.812V9.107q0-.609-.21-1.064a9 9 0 0 0-.455-.861l1.155-.364q.189.287.343.581.154.287.21.623a2.6 2.6 0 0 1 .82-.959 2 2 0 0 1 1.21-.399q.435 0 .658.042.231.042.42.098l-.098 1.015a4 4 0 0 0-.329-.098q-.237-.07-.686-.07-.763 0-1.33.574-.56.567-.56 1.799V14zM177.5 0l1.572 4.837h5.085l-4.114 2.99 1.571 4.836-4.114-2.99-4.114 2.99 1.571-4.837-4.114-2.99h5.085zM191.5 0l1.572 4.837h5.085l-4.114 2.99 1.571 4.836-4.114-2.99-4.114 2.99 1.571-4.837-4.114-2.99h5.085zM205.5 0l1.572 4.837h5.085l-4.114 2.99 1.571 4.836-4.114-2.99-4.114 2.99 1.571-4.837-4.114-2.99h5.085zM219.5 0l1.572 4.837h5.085l-4.114 2.99 1.571 4.836-4.114-2.99-4.114 2.99 1.571-4.837-4.114-2.99h5.085z"/><path fill="#BABAAD" d="m233.5 0 1.572 4.837h5.085l-4.114 2.99 1.571 4.836-4.114-2.99-4.114 2.99 1.571-4.837-4.114-2.99h5.085z"/><path fill="#3F3F3F" d="m176.5 102 1.572 4.837h5.085l-4.114 2.989 1.571 4.837-4.114-2.989-4.114 2.989 1.571-4.837-4.114-2.989h5.085zM190.5 102l1.572 4.837h5.085l-4.114 2.989 1.571 4.837-4.114-2.989-4.114 2.989 1.571-4.837-4.114-2.989h5.085zM204.5 102l1.572 4.837h5.085l-4.114 2.989 1.571 4.837-4.114-2.989-4.114 2.989 1.571-4.837-4.114-2.989h5.085zM218.5 102l1.572 4.837h5.085l-4.114 2.989 1.571 4.837-4.114-2.989-4.114 2.989 1.571-4.837-4.114-2.989h5.085z"/><path fill="#BABAAD" d="m232.5 102 1.572 4.837h5.085l-4.114 2.989 1.571 4.837-4.114-2.989-4.114 2.989 1.571-4.837-4.114-2.989h5.085z"/><path fill="#3F3F3F" d="m177 126 1.572 4.837h5.085l-4.114 2.989 1.571 4.837-4.114-2.989-4.114 2.989 1.571-4.837-4.114-2.989h5.085zM191 126l1.572 4.837h5.085l-4.114 2.989 1.571 4.837-4.114-2.989-4.114 2.989 1.571-4.837-4.114-2.989h5.085zM205 126l1.572 4.837h5.085l-4.114 2.989 1.571 4.837-4.114-2.989-4.114 2.989 1.571-4.837-4.114-2.989h5.085zM219 126l1.572 4.837h5.085l-4.114 2.989 1.571 4.837-4.114-2.989-4.114 2.989 1.571-4.837-4.114-2.989h5.085z"/><path fill="#BABAAD" d="m233 126 1.572 4.837h5.085l-4.114 2.989 1.571 4.837-4.114-2.989-4.114 2.989 1.571-4.837-4.114-2.989h5.085z"/><path fill="#3F3F3F" d="m176.5 78 1.572 4.837h5.085l-4.114 2.99 1.571 4.836-4.114-2.99-4.114 2.99 1.571-4.837-4.114-2.99h5.085zM190.5 78l1.572 4.837h5.085l-4.114 2.99 1.571 4.836-4.114-2.99-4.114 2.99 1.571-4.837-4.114-2.99h5.085zM204.5 78l1.572 4.837h5.085l-4.114 2.99 1.571 4.836-4.114-2.99-4.114 2.99 1.571-4.837-4.114-2.99h5.085zM218.5 78l1.572 4.837h5.085l-4.114 2.99 1.571 4.836-4.114-2.99-4.114 2.99 1.571-4.837-4.114-2.99h5.085z"/><path fill="#BABAAD" d="m232.5 78 1.572 4.837h5.085l-4.114 2.99 1.571 4.836-4.114-2.99-4.114 2.99 1.571-4.837-4.114-2.99h5.085z"/><path fill="#3F3F3F" d="m177.5 27 1.572 4.837h5.085l-4.114 2.99 1.571 4.836-4.114-2.99-4.114 2.99 1.571-4.837-4.114-2.99h5.085zM191.5 27l1.572 4.837h5.085l-4.114 2.99 1.571 4.836-4.114-2.99-4.114 2.99 1.571-4.837-4.114-2.99h5.085zM205.5 27l1.572 4.837h5.085l-4.114 2.99 1.571 4.836-4.114-2.99-4.114 2.99 1.571-4.837-4.114-2.99h5.085z"/><path fill="#BABAAD" d="m219.5 27 1.572 4.837h5.085l-4.114 2.99 1.571 4.836-4.114-2.99-4.114 2.99 1.571-4.837-4.114-2.99h5.085zM233.5 27l1.572 4.837h5.085l-4.114 2.99 1.571 4.836-4.114-2.99-4.114 2.99 1.571-4.837-4.114-2.99h5.085z"/><path fill="#3F3F3F" d="m177.5 54 1.572 4.837h5.085l-4.114 2.99 1.571 4.836-4.114-2.99-4.114 2.99 1.571-4.837-4.114-2.99h5.085zM191.5 54l1.572 4.837h5.085l-4.114 2.99 1.571 4.836-4.114-2.99-4.114 2.99 1.571-4.837-4.114-2.99h5.085zM205.5 54l1.572 4.837h5.085l-4.114 2.99 1.571 4.836-4.114-2.99-4.114 2.99 1.571-4.837-4.114-2.99h5.085z"/><path fill="#BABAAD" d="m219.5 54 1.572 4.837h5.085l-4.114 2.99 1.571 4.836-4.114-2.99-4.114 2.99 1.571-4.837-4.114-2.99h5.085zM233.5 54l1.572 4.837h5.085l-4.114 2.99 1.571 4.836-4.114-2.99-4.114 2.99 1.571-4.837-4.114-2.99h5.085z"/><path fill="#3F3F3F" d="M21.718 66V55.808h2.723q2.268 0 3.262.749.994.75.994 2.303 0 3.03-4.081 3.031h-1.694V66zm1.204-5.152h1.827q2.66 0 2.66-1.974 0-1.036-.637-1.533-.638-.497-2.163-.497h-1.687zM30.395 66v-4.893q0-.608-.21-1.064a9 9 0 0 0-.455-.861l1.155-.364q.189.287.343.581.153.287.21.623.28-.567.819-.959a2 2 0 0 1 1.21-.399q.435 0 .659.042.231.041.42.098l-.098 1.015a4 4 0 0 0-.33-.098q-.237-.07-.685-.07-.764 0-1.33.574-.56.567-.56 1.799V66zm8.534.154q-1.065 0-1.904-.462a3.4 3.4 0 0 1-1.316-1.309q-.483-.847-.483-1.995 0-.988.427-1.834.433-.847 1.246-1.365.819-.525 1.967-.525.756 0 1.309.28.56.273.86.742.309.47.309 1.057 0 .855-.623 1.372-.624.518-1.701.812-1.071.287-2.43.476.141.532.498.938.357.4.84.623.483.225 1 .224.729 0 1.338-.273.615-.28.966-.679l.58.742q-.525.54-1.287.861a4.1 4.1 0 0 1-1.596.315m-2.422-3.584a17 17 0 0 0 1.91-.371q.833-.218 1.31-.567.476-.357.476-.917a.96.96 0 0 0-.35-.77q-.344-.294-.98-.294-.582 0-1.134.287a2.3 2.3 0 0 0-.903.854q-.35.567-.35 1.435 0 .175.02.343m18.734 3.563q-.763.112-1.176-.084-.405-.195-.56-.7-.154-.51-.154-1.337v-1.946q0-1.275-.35-1.841-.35-.574-1.162-.574-.532 0-1.078.273t-.917.854q-.364.574-.364 1.498V66h-1.155v-3.934q0-1.275-.343-1.841-.343-.574-1.155-.574-.505 0-1.03.252a2.26 2.26 0 0 0-.888.777q-.365.525-.42 1.365V66H43.34v-4.893q0-.608-.21-1.064a9 9 0 0 0-.455-.861l1.155-.364q.189.287.343.588.16.294.21.637.315-.623 1.07-1.001a3.6 3.6 0 0 1 1.618-.378q.854 0 1.407.385.553.386.805 1.218l.084-.161q.195-.434.616-.756.42-.322.966-.504a3.6 3.6 0 0 1 1.134-.182q1.218 0 1.82.805.602.798.602 2.576v1.715q0 .532.028.875.035.343.21.483.175.133.609.049zm3.639-.098q-.498 0-.924-.189a1.5 1.5 0 0 1-.686-.623q-.26-.434-.26-1.169v-5.236h1.156v5.201q0 .735.259.945.258.21.616.21a2.8 2.8 0 0 0 .86-.161l.14.777a3.5 3.5 0 0 1-.587.175q-.329.07-.574.07m-1.89-8.701v-1.253h1.232v1.253zm7.382 8.82q-1.065 0-1.904-.462a3.4 3.4 0 0 1-1.316-1.309q-.483-.847-.483-1.995 0-.988.427-1.834a3.47 3.47 0 0 1 1.246-1.365q.82-.525 1.967-.525.755 0 1.31.28.559.273.86.742.308.47.308 1.057 0 .855-.623 1.372t-1.7.812q-1.072.287-2.43.476.14.532.497.938.357.4.84.623.483.225 1.001.224.728 0 1.337-.273.616-.28.966-.679l.581.742q-.525.54-1.288.861a4.1 4.1 0 0 1-1.596.315M61.95 62.57a17 17 0 0 0 1.911-.371q.833-.218 1.31-.567.474-.357.475-.917a.96.96 0 0 0-.35-.77q-.343-.294-.98-.294-.58 0-1.134.287a2.3 2.3 0 0 0-.903.854q-.35.567-.35 1.435 0 .175.021.343M68.826 66v-4.893q0-.608-.21-1.064a9 9 0 0 0-.455-.861l1.155-.364q.189.287.343.581.155.287.21.623.28-.567.82-.959a2 2 0 0 1 1.21-.399q.435 0 .658.042.231.041.42.098l-.098 1.015a4 4 0 0 0-.329-.098q-.237-.07-.686-.07-.763 0-1.33.574-.56.567-.56 1.799V66zm8.534.154q-1.064 0-1.904-.462a3.4 3.4 0 0 1-1.316-1.309q-.483-.847-.483-1.995 0-.988.427-1.834.435-.847 1.246-1.365.82-.525 1.967-.525.755 0 1.31.28.56.273.86.742.309.47.308 1.057 0 .855-.623 1.372t-1.7.812q-1.072.287-2.43.476.141.532.497.938.357.4.84.623.483.225 1.001.224a3.2 3.2 0 0 0 1.337-.273q.617-.28.966-.679l.581.742q-.525.54-1.288.861a4.1 4.1 0 0 1-1.596.315m-2.422-3.584a17 17 0 0 0 1.911-.371q.834-.218 1.31-.567.475-.357.475-.917a.96.96 0 0 0-.35-.77q-.342-.294-.98-.294-.58 0-1.134.287a2.3 2.3 0 0 0-.903.854q-.35.567-.35 1.435 0 .175.021.343m6.8 3.43V55.808h2.722q2.269 0 3.263.749.993.75.993 2.303 0 3.03-4.08 3.031h-1.694V66zm1.204-5.152h1.827q2.66 0 2.66-1.974 0-1.036-.638-1.533-.636-.497-2.162-.497h-1.687zM90.414 66v-4.893q0-.608-.21-1.064a9 9 0 0 0-.455-.861l1.155-.364q.189.287.343.581.154.287.21.623.28-.567.82-.959a2 2 0 0 1 1.21-.399q.435 0 .658.042.231.041.42.098l-.098 1.015a4 4 0 0 0-.329-.098q-.238-.07-.686-.07-.762 0-1.33.574-.56.567-.56 1.799V66zm8.555.154q-1.113 0-1.946-.462a3.35 3.35 0 0 1-1.302-1.309q-.462-.84-.462-1.96 0-1.127.462-1.974a3.3 3.3 0 0 1 1.295-1.316q.84-.47 1.946-.469 1.1 0 1.918.469.82.47 1.274 1.309.456.84.455 1.967 0 1.12-.455 1.967-.455.84-1.274 1.309-.82.47-1.91.469m0-.966q1.106 0 1.778-.756.672-.763.672-2.009 0-1.253-.679-2.009-.672-.763-1.778-.763-1.127 0-1.82.77-.693.763-.693 2.016 0 1.239.693 1.995t1.827.756M24.567 89.993l-3.976-10.185h1.316l2.975 7.917.322.987.336-.98 2.947-7.924h1.281l-3.899 10.185zm8.323.042q-.498 0-.924-.189a1.5 1.5 0 0 1-.686-.623q-.26-.434-.26-1.169v-5.236h1.156v5.201q0 .735.259.945.258.21.616.21a2.8 2.8 0 0 0 .86-.161l.14.777a3.5 3.5 0 0 1-.587.175q-.33.07-.574.07M31 81.334v-1.253h1.232v1.253zm6.297 8.82a4.6 4.6 0 0 1-1.456-.217 6.4 6.4 0 0 1-1.036-.434l.35-.987q.406.308.966.49.567.182 1.092.182.58 0 .987-.231.413-.239.413-.777a.8.8 0 0 0-.28-.623 2.7 2.7 0 0 0-.707-.462q-.434-.203-.924-.413a7.4 7.4 0 0 1-.917-.476 2.4 2.4 0 0 1-.7-.658q-.267-.386-.26-.945.015-.896.659-1.414.644-.525 1.722-.525a4.4 4.4 0 0 1 1.253.168q.573.168 1.015.399l-.308.945a4.5 4.5 0 0 0-.945-.378 3.3 3.3 0 0 0-.945-.147q-.609 0-.966.245a.77.77 0 0 0-.35.672q0 .33.273.567.28.238.714.441.434.195.917.406.49.21.917.49.435.273.7.658.266.386.252.945-.02.924-.68 1.505-.65.574-1.756.574m6.681 0q-.678 0-1.295-.259a2.2 2.2 0 0 1-.994-.861q-.378-.595-.35-1.589l.042-1.519q.035-1.12-.07-1.743-.097-.63-.217-.889a11 11 0 0 0-.126-.294l1.155-.182q.021.035.133.28.113.245.21.889.105.637.07 1.848l-.042 1.61q-.014.686.224 1.064.239.379.623.532.392.147.812.147.582 0 1.057-.259a1.96 1.96 0 0 0 .77-.742q.294-.49.294-1.176v-4.193h1.148v5.068q0 .764.252 1.022.252.252.735.147l-.112.966q-.826.154-1.309-.189-.476-.343-.539-.98-.804 1.302-2.47 1.302m8.283 0q-.876 0-1.533-.399a2.76 2.76 0 0 1-1.015-1.127q-.364-.728-.364-1.694 0-1.28.504-2.24a3.7 3.7 0 0 1 1.407-1.491q.91-.54 2.12-.539.708 0 1.394.168.686.16 1.106.434v4.732q0 .462.238.749.244.28.637.28l-.238 1.001q-.61 0-1.057-.329a1.42 1.42 0 0 1-.567-.861q-.357.595-1.078.959-.72.357-1.554.357m.175-.966q.693 0 1.204-.308.517-.315.805-.847.287-.532.287-1.204v-2.933a2 2 0 0 0-.595-.175 4.3 4.3 0 0 0-.777-.07q-.848 0-1.484.406-.63.4-.987 1.12-.35.72-.35 1.687 0 1.043.518 1.687.525.637 1.379.637m9.758.567a4.3 4.3 0 0 1-1.4.357 2.8 2.8 0 0 1-1.246-.161 1.9 1.9 0 0 1-.889-.728q-.329-.51-.329-1.323v-8.372l1.148-.21v8.638q0 .728.378 1.022t.96.259a3.8 3.8 0 0 0 1.203-.301zm8.126.399q-.93 0-1.925-.273-.994-.28-1.701-.742l.196-1.162a5.2 5.2 0 0 0 1.036.616q.581.26 1.176.406.602.14 1.113.14 1.084 0 1.596-.525.518-.525.518-1.421 0-.26-.091-.49-.084-.231-.357-.455-.266-.225-.805-.455a13 13 0 0 0-1.442-.49q-1.197-.344-1.848-.777-.651-.441-.896-1.001a3.1 3.1 0 0 1-.231-1.288q.014-.805.455-1.393.44-.588 1.21-.903.778-.322 1.8-.322.721 0 1.526.182a5 5 0 0 1 1.617.686l-.364.987a5.4 5.4 0 0 0-1.288-.588 4.4 4.4 0 0 0-1.351-.224q-2.26 0-2.324 1.498-.021.475.147.84.175.364.707.672.54.3 1.61.609 1.316.378 2.009.819t.945.966q.258.525.259 1.169 0 .798-.35 1.463t-1.078 1.064q-.727.392-1.87.392m7.885-.098q-1.218 0-1.77-.511-.555-.51-.554-1.645v-4.333h-1.42v-.749h1.455v-1.904l1.113-.329v2.233h2.36v.749h-2.36v4.347q0 .658.315.959.315.294.994.294.162 0 .413-.042.26-.042.518-.105.26-.063.42-.126l.133.861a7 7 0 0 1-.826.21q-.49.09-.79.091m5.476.098q-.678 0-1.295-.259a2.2 2.2 0 0 1-.994-.861q-.377-.595-.35-1.589l.042-1.519q.036-1.12-.07-1.743-.097-.63-.217-.889a11 11 0 0 0-.126-.294l1.155-.182q.021.035.133.28t.21.889q.105.637.07 1.848l-.042 1.61q-.013.686.224 1.064.239.379.623.532.392.147.812.147.582 0 1.057-.259a1.96 1.96 0 0 0 .77-.742q.294-.49.294-1.176v-4.193h1.148v5.068q0 .764.252 1.022.252.252.735.147l-.112.966q-.825.154-1.309-.189-.476-.343-.539-.98-.805 1.302-2.47 1.302m8.668 0q-.987 0-1.73-.455a3.1 3.1 0 0 1-1.154-1.281q-.413-.825-.413-1.925 0-1.085.37-1.946a3.14 3.14 0 0 1 1.114-1.372q.735-.51 1.813-.511.693 0 1.267.21t1.148.707v-4.123l1.155-.14v7.952q0 .798.084 1.302.091.497.23.812.149.315.302.546l-1.134.161a2.7 2.7 0 0 1-.364-.609 2.2 2.2 0 0 1-.182-.721q-.316.658-.987 1.029a3.14 3.14 0 0 1-1.52.364m.126-.966q.84 0 1.344-.385t.728-1.043q.225-.665.224-1.498v-1.47q-.392-.525-1.015-.833a2.75 2.75 0 0 0-1.24-.308q-.79 0-1.294.371a2.15 2.15 0 0 0-.742 1.008q-.238.63-.238 1.421 0 .812.28 1.435.287.615.79.959.505.343 1.163.343m7.571.847q-.498 0-.924-.189a1.5 1.5 0 0 1-.686-.623q-.26-.434-.26-1.169v-5.236h1.156v5.201q0 .735.259.945t.616.21a2.8 2.8 0 0 0 .861-.161l.14.777q-.26.105-.588.175-.33.07-.574.07m-1.89-8.701v-1.253h1.232v1.253zm7.403 8.82q-1.113 0-1.946-.462a3.35 3.35 0 0 1-1.302-1.309q-.462-.84-.462-1.96 0-1.127.462-1.974a3.3 3.3 0 0 1 1.295-1.316q.84-.47 1.946-.469 1.1 0 1.918.469.82.47 1.274 1.309.455.84.455 1.967 0 1.12-.455 1.967-.455.84-1.274 1.309-.819.47-1.911.469m0-.966q1.106 0 1.778-.756.672-.763.672-2.009 0-1.253-.679-2.009-.672-.763-1.778-.763-1.127 0-1.82.77-.693.763-.693 2.016 0 1.239.693 1.995t1.827.756m13.69.966q-1.54 0-2.646-.665a4.44 4.44 0 0 1-1.694-1.848q-.588-1.183-.588-2.723 0-1.547.609-2.744a4.65 4.65 0 0 1 1.722-1.876q1.113-.68 2.611-.679 1.155 0 1.911.315.756.308 1.33.742l-.553.882a4.3 4.3 0 0 0-1.183-.637 4 4 0 0 0-1.372-.238q-1.239 0-2.086.553a3.44 3.44 0 0 0-1.274 1.505q-.434.953-.434 2.184 0 1.197.399 2.142a3.35 3.35 0 0 0 1.218 1.484q.819.54 2.065.539.952 0 1.666-.245a3.8 3.8 0 0 0 1.253-.714l.399.98a4.5 4.5 0 0 1-1.463.777q-.833.266-1.89.266m8.13 0q-1.113 0-1.946-.462a3.35 3.35 0 0 1-1.302-1.309q-.462-.84-.462-1.96 0-1.127.462-1.974a3.3 3.3 0 0 1 1.295-1.316q.84-.47 1.946-.469 1.1 0 1.918.469.82.47 1.274 1.309.456.84.455 1.967 0 1.12-.455 1.967-.455.84-1.274 1.309-.819.47-1.911.469m0-.966q1.106 0 1.778-.756.672-.763.672-2.009 0-1.253-.679-2.009-.672-.763-1.778-.763-1.127 0-1.82.77-.693.763-.693 2.016 0 1.239.693 1.995t1.827.756m8.187.966q-.988 0-1.729-.455a3.08 3.08 0 0 1-1.155-1.281q-.414-.825-.413-1.925 0-1.085.371-1.946a3.14 3.14 0 0 1 1.113-1.372q.735-.51 1.813-.511.693 0 1.267.21.573.21 1.148.707v-4.123l1.155-.14v7.952q0 .798.084 1.302.09.497.231.812.147.315.301.546l-1.134.161a2.7 2.7 0 0 1-.364-.609 2.2 2.2 0 0 1-.182-.721q-.315.658-.987 1.029a3.14 3.14 0 0 1-1.519.364m.126-.966q.84 0 1.344-.385t.728-1.043q.224-.665.224-1.498v-1.47a2.8 2.8 0 0 0-1.015-.833 2.75 2.75 0 0 0-1.239-.308q-.792 0-1.295.371a2.15 2.15 0 0 0-.742 1.008 4 4 0 0 0-.238 1.421q0 .812.28 1.435.287.615.791.959t1.162.343m8.866.966q-1.065 0-1.904-.462a3.37 3.37 0 0 1-1.316-1.309q-.483-.847-.483-1.995 0-.987.427-1.834a3.46 3.46 0 0 1 1.246-1.365q.819-.525 1.967-.525.756 0 1.309.28.56.273.861.742.308.47.308 1.057 0 .855-.623 1.372-.624.518-1.701.812a20 20 0 0 1-2.429.476q.14.532.497.938.357.4.84.623.482.225 1.001.224.728 0 1.337-.273.615-.28.966-.679l.581.742q-.525.54-1.288.861a4.1 4.1 0 0 1-1.596.315m-2.422-3.584a18 18 0 0 0 1.911-.371q.832-.218 1.309-.567.476-.357.476-.917a.96.96 0 0 0-.35-.77q-.344-.294-.98-.294-.582 0-1.134.287a2.3 2.3 0 0 0-.903.854q-.35.567-.35 1.435 0 .175.021.343M21.718 114v-10.192h5.901v1.036h-4.697v3.451h4.459v1.036h-4.459V114zm9.545.035q-.498 0-.924-.189a1.5 1.5 0 0 1-.686-.623q-.26-.434-.26-1.169v-5.236h1.156v5.201q0 .735.259.945t.616.21a2.8 2.8 0 0 0 .86-.161l.14.777a3.6 3.6 0 0 1-.587.175q-.33.07-.574.07m-1.89-8.701v-1.253h1.232v1.253zm6.724 12.124q-.532 0-1.176-.119a6.7 6.7 0 0 1-1.176-.308l.133-1.071q.483.238 1.064.385.588.154 1.057.154 1.098 0 1.764-.602.672-.602.672-1.589v-1.239q-.393.49-1.057.791a3.5 3.5 0 0 1-1.414.294q-.875 0-1.533-.399a2.76 2.76 0 0 1-1.015-1.127q-.364-.728-.364-1.694 0-1.281.504-2.24a3.7 3.7 0 0 1 1.407-1.491q.91-.539 2.12-.539.708 0 1.394.168.686.16 1.106.434v6.895q0 .987-.434 1.729-.435.743-1.218 1.155-.784.413-1.834.413m.042-4.27q.693 0 1.204-.308.517-.315.805-.847.287-.532.287-1.204v-2.933a2 2 0 0 0-.595-.175 4.2 4.2 0 0 0-.777-.07q-.848 0-1.484.406-.63.399-.987 1.12-.35.721-.35 1.687 0 1.043.518 1.687.525.637 1.379.637m17.434.945q-.763.113-1.176-.084-.405-.196-.56-.7-.154-.511-.154-1.337v-1.946q0-1.274-.35-1.841-.35-.574-1.162-.574-.532 0-1.078.273t-.917.854q-.364.574-.364 1.498V114h-1.155v-3.934q0-1.274-.343-1.841-.343-.574-1.155-.574-.505 0-1.03.252a2.26 2.26 0 0 0-.888.777q-.365.525-.42 1.365V114h-1.148v-4.893q0-.61-.21-1.064a9 9 0 0 0-.455-.861l1.155-.364q.189.287.343.588.16.294.21.637.315-.623 1.07-1.001a3.6 3.6 0 0 1 1.618-.378q.854 0 1.407.385.553.386.805 1.218l.084-.161a2 2 0 0 1 .616-.756 3.3 3.3 0 0 1 .966-.504 3.6 3.6 0 0 1 1.134-.182q1.218 0 1.82.805.602.798.602 2.576v1.715q0 .532.028.875.035.344.21.483.175.133.609.049zm4.143.021q-.876 0-1.533-.399a2.77 2.77 0 0 1-1.015-1.127q-.364-.728-.364-1.694 0-1.281.504-2.24a3.7 3.7 0 0 1 1.407-1.491q.91-.539 2.12-.539.708 0 1.394.168.686.16 1.106.434v4.732q0 .462.238.749.245.28.637.28l-.238 1.001a1.74 1.74 0 0 1-1.057-.329 1.42 1.42 0 0 1-.567-.861q-.357.595-1.078.959-.72.357-1.554.357m.175-.966q.693 0 1.204-.308a2.2 2.2 0 0 0 .805-.847q.287-.532.287-1.204v-2.933a2 2 0 0 0-.595-.175 4.2 4.2 0 0 0-.777-.07q-.848 0-1.484.406-.63.399-.987 1.12-.35.721-.35 1.687 0 1.043.518 1.687.525.637 1.379.637M25.712 137.154q-1.54 0-2.646-.665a4.44 4.44 0 0 1-1.694-1.848q-.588-1.183-.588-2.723 0-1.547.609-2.744a4.65 4.65 0 0 1 1.722-1.876q1.113-.68 2.611-.679 1.155 0 1.911.315.756.308 1.33.742l-.553.882a4.3 4.3 0 0 0-1.183-.637 4 4 0 0 0-1.372-.238q-1.239 0-2.086.553-.84.546-1.274 1.505-.434.953-.434 2.184 0 1.197.399 2.142.406.938 1.218 1.484.819.539 2.065.539.952 0 1.666-.245a3.8 3.8 0 0 0 1.253-.714l.399.98a4.5 4.5 0 0 1-1.463.777q-.832.266-1.89.266m7.455 0q-.874 0-1.533-.399a2.77 2.77 0 0 1-1.015-1.127q-.364-.728-.364-1.694 0-1.281.504-2.24a3.7 3.7 0 0 1 1.407-1.491q.91-.539 2.121-.539.707 0 1.393.168.686.16 1.106.434v4.732q0 .462.238.749.245.28.637.28l-.238 1.001a1.74 1.74 0 0 1-1.057-.329 1.42 1.42 0 0 1-.567-.861q-.357.595-1.078.959-.72.357-1.554.357m.175-.966q.693 0 1.204-.308.518-.315.805-.847t.287-1.204v-2.933a2 2 0 0 0-.595-.175 4.2 4.2 0 0 0-.777-.07q-.848 0-1.484.406-.63.399-.987 1.12-.35.721-.35 1.687 0 1.043.518 1.687.525.637 1.379.637m12.825.945q-.764.112-1.163-.084-.398-.196-.545-.7-.148-.511-.148-1.337v-1.946q0-1.274-.35-1.841-.35-.574-1.161-.574-.505 0-1.03.252a2.26 2.26 0 0 0-.889.777q-.363.525-.42 1.365V137h-1.148v-4.893q0-.61-.21-1.064a9 9 0 0 0-.455-.861l1.155-.364q.19.287.344.588.16.294.21.637.315-.623 1.07-1.001a3.6 3.6 0 0 1 1.617-.378q1.22 0 1.82.805.603.798.603 2.576v1.715q0 .532.02.875.022.344.19.483.167.133.602.049zM49.87 137l-3.003-7.182h1.274l1.967 4.83q.097.238.21.581.112.344.196.63.16-.532.245-.798.084-.273.147-.413l1.932-4.83h1.239L51.047 137zm7.796.154q-.874 0-1.533-.399a2.77 2.77 0 0 1-1.015-1.127q-.364-.728-.364-1.694 0-1.281.504-2.24a3.7 3.7 0 0 1 1.407-1.491q.91-.539 2.121-.539.707 0 1.393.168.686.16 1.106.434v4.732q0 .462.238.749.245.28.637.28l-.238 1.001a1.74 1.74 0 0 1-1.057-.329 1.42 1.42 0 0 1-.567-.861q-.357.595-1.078.959-.72.357-1.554.357m.175-.966q.693 0 1.204-.308.518-.315.805-.847t.287-1.204v-2.933a2 2 0 0 0-.595-.175 4.2 4.2 0 0 0-.777-.07q-.848 0-1.484.406-.63.399-.987 1.12-.35.721-.35 1.687 0 1.043.518 1.687.525.637 1.379.637"/></svg>