<svg xmlns="http://www.w3.org/2000/svg" width="83" height="87" fill="none"><ellipse cx="41.249" cy="43.175" fill="#fff" rx="32" ry="35" transform="rotate(18 41.25 43.175)"/><path stroke="#3F3F3F" stroke-opacity=".6" stroke-width="1.6" d="M51.818 10.65c16.325 5.304 24.963 24.138 19.105 42.167-5.859 18.03-23.917 28.19-40.242 22.885S5.718 51.563 11.576 33.534c5.858-18.03 23.917-28.19 40.242-22.885Z"/><path fill="#3F3F3F" d="M21.8 57.998q-1.104-1.224-1.104-3.108t1.104-3.096q1.104-1.224 2.916-1.224t2.916 1.224q1.104 1.212 1.104 3.096t-1.104 3.108q-1.104 1.212-2.916 1.212T21.8 57.998m.264-5.952q-1.008 1.116-1.008 2.844t1.008 2.844 2.652 1.116 2.652-1.116 1.008-2.844-1.008-2.844-2.652-1.116-2.652 1.116m7.997 6.684h.84q.18 0 .18-.18v-7.32q0-.18-.18-.18h-.84q-.18 0-.18-.18t.18-.18h2.28q.18 0 .18.18t-.18.18h-.72q-.18 0-.18.18v4.44l4.08-4.44q.072-.06.048-.12-.012-.06-.108-.06h-.78q-.18 0-.18-.18t.18-.18h2.46q.18 0 .18.18t-.18.18h-.768q-.132 0-.312.18l-2.772 3.012 3.132 4.308q.156.18.3.18h.78q.18 0 .18.18t-.18.18h-2.4q-.18 0-.18-.18t.18-.18h.78q.216 0 .06-.18l-2.916-4.02-1.584 1.728v2.292q0 .18.18.18h.72q.18 0 .18.18t-.18.18h-2.28q-.18 0-.18-.18t.18-.18m12.063-7.38q-.024-.072-.072-.072t-.072.072l-1.644 4.272q-.096.18.132.18h3.168q.216 0 .132-.18zm1.92 4.98q-.072-.168-.288-.168h-3.408q-.216 0-.288.168l-.852 2.22q-.096.18.12.18h.72q.18 0 .18.18t-.18.18h-2.28q-.18 0-.18-.18t.18-.18h.78q.144 0 .24-.18l3-7.8q.048-.18.264-.18t.264.18l3 7.8q.084.18.24.18h.78q.18 0 .18.18t-.18.18h-2.28q-.18 0-.18-.18t.18-.18h.72q.204 0 .12-.18zm7.784-1.728q1.74.336 1.74 2.304 0 .96-.6 1.572-.588.612-1.68.612h-4.14q-.18 0-.18-.18t.18-.18h.84q.18 0 .18-.18v-7.32q0-.18-.18-.18h-.84q-.18 0-.18-.18t.18-.18h3.66q.96 0 1.56.6t.6 1.5q0 1.272-1.14 1.812m-3.3-.252q0 .18.18.18h2.16q.756 0 1.248-.504.492-.516.492-1.26t-.492-1.224q-.48-.492-1.308-.492h-2.1q-.18 0-.18.18zm0 4.2q0 .18.18.18h2.58q.9 0 1.404-.504.516-.516.516-1.416t-.516-1.404q-.504-.516-1.404-.516h-2.58q-.18 0-.18.18zm6.366.54q-.18 0-.18-.18t.18-.18h.84q.18 0 .18-.18v-7.32q0-.18-.18-.18h-.84q-.18 0-.18-.18t.18-.18h5.7q.18 0 .18.18v1.68q0 .18-.18.18t-.18-.18v-1.32q0-.18-.18-.18h-3.78q-.18 0-.18.18v3.24q0 .18.18.18h2.7q.18 0 .18-.18v-.6q0-.18.18-.18t.18.18v1.92q0 .18-.18.18t-.18-.18v-.6q0-.18-.18-.18h-2.7q-.18 0-.18.18v3.36q0 .18.18.18h3.9q.18 0 .18-.18v-1.32q0-.18.18-.18t.18.18v1.68q0 .18-.18.18z"/></svg>