<svg xmlns="http://www.w3.org/2000/svg" width="30" height="30" fill="none"><g clip-path="url(#a)"><path fill="#F4F2ED" d="M22.969 0H7.03A7.03 7.03 0 0 0 0 7.031V22.97A7.03 7.03 0 0 0 7.031 30H22.97A7.03 7.03 0 0 0 30 22.969V7.03A7.03 7.03 0 0 0 22.969 0"/><mask id="b" width="16" height="24" x="7" y="3" maskUnits="userSpaceOnUse" style="mask-type:luminance"><path fill="#fff" d="M7.148 3.281h15.629V26.72H7.148z"/></mask><g mask="url(#b)"><path fill="#0ACF83" d="M11.056 26.719a3.91 3.91 0 0 0 3.906-3.906v-3.907h-3.906a3.91 3.91 0 0 0-3.906 3.907 3.91 3.91 0 0 0 3.906 3.906"/><path fill="#A259FF" d="M7.15 15a3.91 3.91 0 0 1 3.906-3.906h3.906v7.812h-3.906A3.91 3.91 0 0 1 7.15 15"/><path fill="#F24E1E" d="M7.15 7.187a3.91 3.91 0 0 1 3.906-3.906h3.906v7.813h-3.906A3.91 3.91 0 0 1 7.15 7.187"/><path fill="#FF7262" d="M14.962 3.281h3.907a3.91 3.91 0 0 1 3.906 3.906 3.91 3.91 0 0 1-3.906 3.907h-3.907z"/><path fill="#1ABCFE" d="M22.775 15a3.91 3.91 0 0 1-3.906 3.906A3.91 3.91 0 0 1 14.962 15a3.91 3.91 0 0 1 3.907-3.906A3.91 3.91 0 0 1 22.775 15"/></g></g><defs><clipPath id="a"><path fill="#fff" d="M0 0h30v30H0z"/></clipPath></defs></svg>