<svg xmlns="http://www.w3.org/2000/svg" width="30" height="30" fill="none"><g clip-path="url(#a)"><path fill="#242938" d="M22.969 0H7.03A7.03 7.03 0 0 0 0 7.031V22.97A7.03 7.03 0 0 0 7.031 30H22.97A7.03 7.03 0 0 0 30 22.969V7.03A7.03 7.03 0 0 0 22.969 0"/><path fill="#2489CA" d="M3.951 11.743s-.555-.4.111-.934l1.551-1.387s.444-.467.913-.06l14.315 10.837v5.197s-.007.816-1.055.726z"/><path fill="#1070B3" d="m7.64 15.093-3.689 3.354s-.38.282 0 .786l1.713 1.558s.407.437 1.008-.06l3.911-2.966z"/><path fill="#0877B9" d="m14.118 15.12 6.767-5.166-.044-5.17s-.29-1.127-1.253-.54l-9.004 8.195z"/><path fill="#3C99D4" d="M19.786 26.13c.393.401.87.27.87.27l5.273-2.599c.675-.46.58-1.03.58-1.03V7.253c0-.682-.698-.918-.698-.918l-4.57-2.203c-1-.617-1.653.11-1.653.11s.841-.605 1.253.542V25.3c0 .14-.03.279-.09.405-.12.243-.382.47-1.008.375z"/></g><defs><clipPath id="a"><path fill="#fff" d="M0 0h30v30H0z"/></clipPath></defs></svg>